<?xml version="1.0" encoding="UTF-8" standalone="no"?><!-- Generator: Gravit.io --><svg xmlns="http://www.w3.org/2000/svg" xmlns:xlink="http://www.w3.org/1999/xlink" style="isolation:isolate" viewBox="0 0 512 512" width="512pt" height="512pt"><g><path d=" M 460.8 256 C 460.8 369.108 369.108 460.8 256 460.8 C 142.892 460.8 51.2 369.108 51.2 256 C 51.2 142.892 142.892 51.2 256 51.2 C 369.108 51.2 460.8 142.892 460.8 256 Z " fill="rgb(127,94,221)"/><path d=" M 256 0 C 114.617 0 0 114.617 0 256 C 0 397.383 114.617 512 256 512 C 397.383 512 512 397.383 512 256 C 511.842 114.683 397.317 0.158 256 0 Z  M 256 494.933 C 124.042 494.933 17.067 387.958 17.067 256 C 17.067 124.042 124.042 17.067 256 17.067 C 387.958 17.067 494.933 124.042 494.933 256 C 494.783 387.896 387.896 494.783 256 494.933 Z " fill="rgb(255,255,255)"/><path d=" M 383.925 255.625 C 383.892 255.208 383.821 254.8 383.717 254.396 C 383.658 253.963 383.558 253.537 383.421 253.125 C 383.325 252.875 383.258 252.637 383.146 252.4 C 382.942 252.033 382.713 251.683 382.463 251.35 C 382.283 251.092 382.225 250.787 382.021 250.537 L 296.687 148.137 C 294.763 145.713 291.671 144.521 288.617 145.021 C 285.558 145.525 283.017 147.646 281.971 150.563 C 280.925 153.475 281.542 156.729 283.579 159.063 L 357.25 247.467 L 136.533 247.467 C 131.821 247.467 128 251.287 128 256 C 128 260.713 131.821 264.533 136.533 264.533 L 357.25 264.533 L 283.579 352.937 C 281.542 355.271 280.925 358.525 281.971 361.437 C 283.017 364.354 285.558 366.475 288.617 366.979 C 291.671 367.479 294.763 366.287 296.687 363.863 L 382.021 261.463 C 382.225 261.213 382.283 260.908 382.463 260.65 C 382.713 260.317 382.942 259.967 383.146 259.6 C 383.258 259.363 383.325 259.125 383.421 258.875 C 383.558 258.463 383.658 258.037 383.717 257.604 C 383.821 257.2 383.892 256.792 383.925 256.375 C 383.925 256.246 384 256.137 384 256 C 384 255.863 383.933 255.754 383.925 255.625 L 383.925 255.625 Z " fill="rgb(255,255,255)"/></g></svg>