<?xml version="1.0" encoding="UTF-8" standalone="no"?><!-- Generator: Gravit.io --><svg xmlns="http://www.w3.org/2000/svg" xmlns:xlink="http://www.w3.org/1999/xlink" style="isolation:isolate" viewBox="57.755 41.899 100 100.216" width="100pt" height="100.216pt"><g><g><g><path d=" M 116.083 47.33 C 115.995 47.861 115.494 48.219 114.963 48.131 C 114.433 48.043 114.073 47.541 114.162 47.011 L 114.73 43.594 C 114.819 43.064 115.32 42.705 115.851 42.793 C 116.382 42.881 116.74 43.383 116.652 43.914 L 116.083 47.33 Z " fill="rgb(127,94,221)"/><path d=" M 123.318 49.321 C 123.143 49.83 122.59 50.102 122.081 49.927 C 121.572 49.753 121.3 49.2 121.474 48.691 L 122.596 45.414 C 122.77 44.905 123.323 44.634 123.832 44.808 C 124.341 44.982 124.612 45.536 124.439 46.045 L 123.318 49.321 Z " fill="rgb(127,94,221)"/><path d=" M 130.127 52.472 C 129.871 52.946 129.281 53.123 128.808 52.867 C 128.334 52.612 128.157 52.021 128.412 51.548 L 130.056 48.5 C 130.311 48.026 130.901 47.849 131.375 48.105 C 131.849 48.36 132.025 48.95 131.77 49.424 L 130.127 52.472 Z " fill="rgb(127,94,221)"/><path d=" M 136.326 56.698 C 135.997 57.123 135.385 57.201 134.96 56.871 C 134.535 56.542 134.457 55.93 134.787 55.505 L 136.908 52.767 C 137.238 52.342 137.849 52.265 138.274 52.594 C 138.7 52.923 138.778 53.535 138.447 53.96 L 136.326 56.698 Z " fill="rgb(127,94,221)"/><path d=" M 141.749 61.884 C 141.354 62.249 140.738 62.225 140.373 61.83 C 140.008 61.435 140.031 60.819 140.426 60.454 L 142.968 58.102 C 143.362 57.736 143.979 57.76 144.344 58.155 C 144.71 58.55 144.686 59.165 144.29 59.531 L 141.749 61.884 Z " fill="rgb(127,94,221)"/></g><g><path d=" M 146.247 67.889 C 145.798 68.184 145.194 68.06 144.899 67.61 C 144.603 67.161 144.727 66.557 145.177 66.262 L 148.07 64.358 C 148.519 64.063 149.123 64.187 149.419 64.636 C 149.715 65.085 149.59 65.689 149.14 65.985 L 146.247 67.889 Z " fill="rgb(127,94,221)"/><path d=" M 149.699 74.551 C 149.208 74.768 148.632 74.546 148.415 74.055 C 148.197 73.563 148.418 72.987 148.91 72.769 L 152.077 71.367 C 152.568 71.149 153.144 71.371 153.362 71.863 C 153.58 72.354 153.357 72.929 152.865 73.147 L 149.699 74.551 Z " fill="rgb(127,94,221)"/><path d=" M 152.398 81.637 C 151.876 81.763 151.349 81.443 151.223 80.92 C 151.096 80.397 151.417 79.871 151.94 79.744 L 155.306 78.93 C 155.829 78.803 156.355 79.124 156.481 79.647 C 156.609 80.17 156.288 80.696 155.764 80.822 L 152.398 81.637 Z " fill="rgb(127,94,221)"/><path d=" M 153.398 89.073 C 152.862 89.112 152.395 88.709 152.356 88.173 C 152.317 87.636 152.72 87.17 153.257 87.131 L 156.711 86.88 C 157.247 86.84 157.714 87.243 157.753 87.78 C 157.792 88.317 157.389 88.783 156.852 88.822 L 153.398 89.073 Z " fill="rgb(127,94,221)"/><path d=" M 153.164 96.573 C 152.629 96.523 152.234 96.049 152.284 95.513 C 152.334 94.978 152.808 94.584 153.343 94.633 L 156.792 94.952 C 157.327 95.001 157.722 95.476 157.672 96.012 C 157.623 96.547 157.149 96.941 156.612 96.891 L 153.164 96.573 Z " fill="rgb(127,94,221)"/></g><g><path d=" M 151.646 103.991 C 151.124 103.862 150.805 103.334 150.934 102.812 C 151.064 102.29 151.591 101.971 152.113 102.099 L 155.476 102.931 C 155.996 103.059 156.316 103.588 156.187 104.11 C 156.059 104.632 155.531 104.951 155.009 104.822 L 151.646 103.991 Z " fill="rgb(127,94,221)"/><path d=" M 149.101 111.049 C 148.608 110.836 148.379 110.263 148.593 109.769 C 148.806 109.276 149.378 109.048 149.872 109.26 L 153.053 110.632 C 153.546 110.843 153.774 111.417 153.561 111.911 C 153.349 112.406 152.776 112.634 152.282 112.42 L 149.101 111.049 Z " fill="rgb(127,94,221)"/><path d=" M 145.432 117.594 C 144.981 117.303 144.849 116.7 145.141 116.248 C 145.432 115.797 146.035 115.665 146.487 115.956 L 149.399 117.831 C 149.85 118.12 149.982 118.725 149.691 119.176 C 149.401 119.629 148.797 119.76 148.346 119.469 L 145.432 117.594 Z " fill="rgb(127,94,221)"/><path d=" M 140.74 123.449 C 140.343 123.088 140.312 122.47 140.673 122.074 C 141.035 121.676 141.651 121.644 142.049 122.006 L 144.614 124.333 C 145.012 124.693 145.043 125.31 144.681 125.708 C 144.321 126.107 143.704 126.138 143.307 125.776 L 140.74 123.449 Z " fill="rgb(127,94,221)"/><path d=" M 135.15 128.454 C 134.818 128.032 134.888 127.418 135.31 127.087 C 135.732 126.753 136.345 126.823 136.679 127.245 L 138.827 129.961 C 139.16 130.382 139.09 130.996 138.667 131.329 C 138.246 131.664 137.633 131.593 137.301 131.171 L 135.15 128.454 Z " fill="rgb(127,94,221)"/><path d=" M 128.815 132.474 C 128.556 132.004 128.727 131.409 129.197 131.152 C 129.669 130.892 130.261 131.062 130.521 131.532 L 132.195 134.564 C 132.455 135.034 132.284 135.628 131.813 135.887 C 131.343 136.149 130.749 135.978 130.491 135.508 L 128.815 132.474 Z " fill="rgb(127,94,221)"/><path d=" M 121.906 135.4 C 121.728 134.894 121.994 134.335 122.501 134.159 C 123.008 133.98 123.564 134.245 123.744 134.751 L 124.898 138.016 C 125.077 138.523 124.811 139.081 124.303 139.259 C 123.797 139.44 123.239 139.173 123.062 138.668 L 121.906 135.4 Z " fill="rgb(127,94,221)"/></g><g><path d=" M 114.389 137.275 C 114.308 136.745 114.672 136.245 115.203 136.164 C 115.734 136.082 116.233 136.444 116.315 136.976 L 116.846 140.399 C 116.929 140.928 116.565 141.428 116.033 141.51 C 115.502 141.594 115.003 141.23 114.922 140.699 L 114.389 137.275 Z " fill="rgb(127,94,221)"/><path d=" M 106.896 137.651 C 106.903 137.115 107.344 136.682 107.88 136.689 C 108.418 136.695 108.85 137.135 108.844 137.673 L 108.807 141.136 C 108.802 141.672 108.36 142.106 107.822 142.099 C 107.285 142.095 106.853 141.654 106.86 141.117 L 106.896 137.651 Z " fill="rgb(127,94,221)"/><path d=" M 99.443 136.794 C 99.537 136.265 100.043 135.91 100.571 136.006 C 101.101 136.1 101.455 136.605 101.361 137.134 L 100.756 140.545 C 100.663 141.073 100.156 141.428 99.627 141.332 C 99.097 141.24 98.743 140.734 98.838 140.206 L 99.443 136.794 Z " fill="rgb(127,94,221)"/></g><g><path d=" M 92.404 135.062 C 92.574 134.555 93.125 134.274 93.634 134.446 C 94.144 134.617 94.422 135.165 94.254 135.677 L 93.166 138.964 C 92.998 139.473 92.445 139.752 91.934 139.582 C 91.424 139.414 91.146 138.863 91.316 138.353 L 92.404 135.062 Z " fill="rgb(127,94,221)"/><path d=" M 85.564 131.98 C 85.814 131.506 86.405 131.319 86.879 131.573 C 87.354 131.826 87.538 132.413 87.288 132.889 L 85.675 135.953 C 85.426 136.427 84.835 136.612 84.359 136.361 C 83.883 136.111 83.699 135.521 83.951 135.048 L 85.564 131.98 Z " fill="rgb(127,94,221)"/><path d=" M 79.323 127.816 C 79.647 127.391 80.26 127.303 80.686 127.631 C 81.114 127.958 81.199 128.567 80.874 128.996 L 78.78 131.754 C 78.457 132.181 77.844 132.266 77.415 131.94 C 76.987 131.616 76.902 131.004 77.228 130.578 L 79.323 127.816 Z " fill="rgb(127,94,221)"/><path d=" M 73.849 122.685 C 74.239 122.318 74.858 122.332 75.224 122.726 C 75.593 123.119 75.577 123.733 75.185 124.104 L 72.668 126.48 C 72.279 126.849 71.66 126.832 71.291 126.441 C 70.921 126.05 70.938 125.432 71.329 125.066 L 73.849 122.685 Z " fill="rgb(127,94,221)"/><path d=" M 69.292 116.725 C 69.736 116.428 70.345 116.543 70.641 116.991 C 70.94 117.439 70.824 118.043 70.377 118.344 L 67.504 120.274 C 67.059 120.575 66.452 120.456 66.152 120.01 C 65.851 119.564 65.969 118.957 66.415 118.66 L 69.292 116.725 Z " fill="rgb(127,94,221)"/><path d=" M 65.774 110.099 C 66.261 109.878 66.842 110.091 67.061 110.583 C 67.283 111.073 67.068 111.65 66.579 111.873 L 63.428 113.306 C 62.94 113.53 62.36 113.313 62.137 112.824 C 61.914 112.335 62.13 111.756 62.619 111.535 L 65.774 110.099 Z " fill="rgb(127,94,221)"/><path d=" M 63.39 102.985 C 63.908 102.847 64.446 103.153 64.581 103.673 C 64.719 104.193 64.414 104.728 63.893 104.867 L 60.55 105.763 C 60.032 105.904 59.496 105.595 59.356 105.077 C 59.216 104.557 59.524 104.021 60.043 103.884 L 63.39 102.985 Z " fill="rgb(127,94,221)"/><path d=" M 62.207 95.576 C 62.74 95.525 63.22 95.915 63.269 96.45 C 63.32 96.986 62.93 97.463 62.394 97.515 L 58.949 97.851 C 58.415 97.905 57.937 97.512 57.884 96.978 C 57.831 96.441 58.223 95.964 58.757 95.914 L 62.207 95.576 Z " fill="rgb(127,94,221)"/></g><g><path d=" M 62.255 88.073 C 62.789 88.11 63.199 88.574 63.159 89.11 C 63.121 89.647 62.659 90.053 62.122 90.017 L 58.668 89.783 C 58.132 89.749 57.725 89.283 57.761 88.747 C 57.797 88.209 58.261 87.803 58.797 87.841 L 62.255 88.073 Z " fill="rgb(127,94,221)"/><path d=" M 63.533 80.68 C 64.054 80.804 64.383 81.329 64.255 81.851 C 64.13 82.375 63.607 82.7 63.083 82.576 L 59.715 81.779 C 59.192 81.657 58.867 81.13 58.989 80.607 C 59.113 80.083 59.638 79.758 60.16 79.883 L 63.533 80.68 Z " fill="rgb(127,94,221)"/><path d=" M 66.007 73.597 C 66.501 73.805 66.739 74.377 66.527 74.871 C 66.318 75.367 65.749 75.601 65.252 75.394 L 62.06 74.054 C 61.565 73.848 61.33 73.275 61.537 72.779 C 61.745 72.283 62.316 72.048 62.811 72.258 L 66.007 73.597 Z " fill="rgb(127,94,221)"/><path d=" M 69.61 67.016 C 70.063 67.302 70.204 67.905 69.914 68.358 C 69.626 68.812 69.026 68.95 68.57 68.664 L 65.642 66.819 C 65.186 66.535 65.049 65.931 65.335 65.476 C 65.621 65.02 66.224 64.883 66.676 65.17 L 69.61 67.016 Z " fill="rgb(127,94,221)"/><path d=" M 74.244 61.115 C 74.644 61.471 74.683 62.09 74.323 62.489 C 73.965 62.89 73.351 62.927 72.948 62.57 L 70.362 60.27 C 69.959 59.915 69.923 59.296 70.279 58.895 C 70.637 58.492 71.253 58.455 71.653 58.813 L 74.244 61.115 Z " fill="rgb(127,94,221)"/><path d=" M 79.783 56.055 C 80.119 56.472 80.057 57.088 79.636 57.422 C 79.216 57.759 78.605 57.696 78.265 57.277 L 76.092 54.584 C 75.754 54.168 75.819 53.552 76.236 53.214 C 76.655 52.875 77.269 52.94 77.605 53.358 L 79.783 56.055 Z " fill="rgb(127,94,221)"/><path d=" M 86.078 51.972 C 86.341 52.438 86.178 53.036 85.708 53.297 C 85.239 53.56 84.646 53.397 84.38 52.929 L 82.678 49.915 C 82.412 49.449 82.577 48.852 83.045 48.587 C 83.514 48.322 84.109 48.487 84.371 48.954 L 86.078 51.972 Z " fill="rgb(127,94,221)"/><path d=" M 92.957 48.977 C 93.139 49.48 92.881 50.043 92.375 50.223 C 91.869 50.406 91.31 50.148 91.125 49.642 L 89.94 46.39 C 89.755 45.887 90.016 45.325 90.52 45.14 C 91.026 44.956 91.586 45.216 91.769 45.72 L 92.957 48.977 Z " fill="rgb(127,94,221)"/><path d=" M 100.234 47.151 C 100.331 47.677 99.984 48.191 99.456 48.285 C 98.926 48.382 98.418 48.036 98.318 47.507 L 97.683 44.105 C 97.582 43.578 97.932 43.066 98.46 42.967 C 98.989 42.868 99.499 43.216 99.596 43.744 L 100.234 47.151 Z " fill="rgb(127,94,221)"/><path d=" M 108.621 46.553 C 108.621 47.091 108.185 47.527 107.647 47.527 C 107.109 47.527 106.673 47.091 106.673 46.553 L 106.673 43.09 C 106.673 42.552 107.109 42.115 107.647 42.115 C 108.185 42.115 108.621 42.552 108.621 43.09 L 108.621 46.553 Z " fill="rgb(127,94,221)"/></g><g><path d=" M 154.695 50.057 C 154.628 46.934 152.042 44.457 148.919 44.524 L 147.108 44.563 L 147.053 42.01 L 149.606 41.956 C 153.873 41.864 157.406 45.249 157.498 49.515 L 157.527 50.879 L 154.714 50.939 L 154.695 50.057 Z " fill="rgb(127,94,221)"/><path d=" M 60.569 133.906 C 60.569 137.03 63.102 139.562 66.225 139.562 L 68.037 139.562 L 68.037 142.115 L 65.483 142.115 C 61.215 142.115 57.755 138.655 57.755 134.388 L 57.755 133.024 L 60.569 133.024 L 60.569 133.906 Z " fill="rgb(127,94,221)"/><path d=" M 154.695 133.957 C 154.628 137.08 152.042 139.557 148.919 139.49 L 147.108 139.451 L 147.053 142.003 L 149.606 142.058 C 153.873 142.15 157.406 138.765 157.498 134.499 L 157.527 133.136 L 154.714 133.075 L 154.695 133.957 Z " fill="rgb(127,94,221)"/><path d=" M 60.569 50.108 C 60.569 46.984 63.102 44.452 66.225 44.452 L 68.037 44.452 L 68.037 41.899 L 65.483 41.899 C 61.215 41.899 57.755 45.359 57.755 49.626 L 57.755 50.99 L 60.569 50.99 L 60.569 50.108 Z " fill="rgb(127,94,221)"/></g><g><path d=" M 104.79 121.111 L 110.189 121.111 L 125.542 109.126 L 130.271 86.428 L 128.791 73.783 L 117.239 62.902 L 99.364 62.902 L 87.802 74.464 L 85.243 88.067 L 88.887 106.691 L 104.79 121.111 Z  M 110.348 121.575 L 104.611 121.575 L 104.545 121.515 L 88.461 106.931 L 88.447 106.855 L 84.771 88.069 L 84.779 88.025 L 87.373 74.238 L 87.424 74.187 L 99.172 62.439 L 117.423 62.439 L 129.232 73.561 L 129.241 73.645 L 130.74 86.449 L 125.961 109.386 L 110.348 121.575 Z " fill="rgb(164,164,252)"/><path d=" M 87.699 74.447 L 87.695 73.983 L 128.873 73.576 L 128.878 74.04 L 87.699 74.447 Z " fill="rgb(164,164,252)"/><path d=" M 107.687 74.297 L 99.145 62.879 L 99.516 62.601 L 108.058 74.02 L 107.687 74.297 Z " fill="rgb(164,164,252)"/><path d=" M 108.484 74.259 L 108.12 73.972 L 117.149 62.527 L 117.513 62.814 L 108.484 74.259 Z " fill="rgb(164,164,252)"/><path d=" M 96.12 80.801 L 95.896 80.396 L 107.984 73.741 L 108.208 74.146 L 96.12 80.801 Z " fill="rgb(164,164,252)"/><path d=" M 95.982 80.629 L 87.561 74.518 L 87.833 74.143 L 96.254 80.255 L 95.982 80.629 Z " fill="rgb(164,164,252)"/><path d=" M 120.754 80.939 L 107.852 74.148 L 108.068 73.739 L 120.97 80.529 L 120.754 80.939 Z " fill="rgb(164,164,252)"/><path d=" M 120.876 80.912 L 120.578 80.557 L 128.758 73.681 L 129.056 74.036 L 120.876 80.912 Z " fill="rgb(164,164,252)"/><path d=" M 120.86 80.966 L 96.006 80.695 L 96.011 80.231 L 120.865 80.503 L 120.86 80.966 Z " fill="rgb(164,164,252)"/><path d=" M 89.833 84.731 L 89.586 84.34 L 95.992 80.298 L 96.239 80.69 L 89.833 84.731 Z " fill="rgb(164,164,252)"/><path d=" M 96.031 88.406 L 89.524 84.756 L 89.751 84.352 L 96.257 88.002 L 96.031 88.406 Z " fill="rgb(164,164,252)"/><path d=" M 96.186 88.432 L 96.102 87.976 L 105.609 86.211 L 105.693 86.666 L 96.186 88.432 Z " fill="rgb(164,164,252)"/><path d=" M 105.665 86.635 L 95.993 80.636 L 96.237 80.243 L 105.909 86.242 L 105.665 86.635 Z " fill="rgb(164,164,252)"/><path d=" M 109.881 86.546 L 109.668 86.134 L 120.484 80.529 L 120.697 80.94 L 109.881 86.546 Z " fill="rgb(164,164,252)"/><path d=" M 118.226 89.088 L 109.659 86.525 L 109.792 86.081 L 118.359 88.644 L 118.226 89.088 Z " fill="rgb(164,164,252)"/><path d=" M 118.393 89.118 L 118.226 88.686 L 125.282 85.962 L 125.449 86.394 L 118.393 89.118 Z " fill="rgb(164,164,252)"/><path d=" M 125.3 86.295 L 120.5 80.864 L 120.847 80.557 L 125.647 85.988 L 125.3 86.295 Z " fill="rgb(164,164,252)"/><path d=" M 130.37 86.399 L 125.344 86.399 L 125.344 85.935 L 130.37 85.935 L 130.37 86.399 Z " fill="rgb(164,164,252)"/><path d=" M 85.558 84.905 L 85.543 84.441 L 89.753 84.306 L 89.768 84.769 L 85.558 84.905 Z " fill="rgb(164,164,252)"/><path d=" M 105.451 86.493 L 102.672 80.574 L 103.092 80.377 L 105.871 86.296 L 105.451 86.493 Z " fill="rgb(164,164,252)"/><path d=" M 109.968 86.486 L 109.582 86.23 L 113.353 80.528 L 113.739 80.784 L 109.968 86.486 Z " fill="rgb(164,164,252)"/><path d=" M 105.522 86.67 L 105.509 86.207 L 109.787 86.09 L 109.799 86.554 L 105.522 86.67 Z " fill="rgb(164,164,252)"/><path d=" M 89.707 95.121 L 89.373 94.8 L 95.841 88.044 L 96.176 88.364 L 89.707 95.121 Z " fill="rgb(164,164,252)"/><path d=" M 122.83 95.76 L 118.092 89.016 L 118.471 88.75 L 123.209 95.493 L 122.83 95.76 Z " fill="rgb(164,164,252)"/><path d=" M 123.231 95.798 L 122.866 95.513 L 130.254 86.053 L 130.619 86.338 L 123.231 95.798 Z " fill="rgb(164,164,252)"/><path d=" M 89.376 95.117 L 84.8 88.195 L 85.186 87.94 L 89.762 94.862 L 89.376 95.117 Z " fill="rgb(164,164,252)"/><path d=" M 109.957 97.847 L 109.494 97.847 L 109.494 86.303 L 109.957 86.303 L 109.957 97.847 Z " fill="rgb(164,164,252)"/><path d=" M 106.099 97.589 L 105.43 86.462 L 105.892 86.434 L 106.561 97.562 L 106.099 97.589 Z " fill="rgb(164,164,252)"/><path d=" M 106.631 100.765 L 106.052 97.579 L 106.508 97.497 L 107.087 100.682 L 106.631 100.765 Z " fill="rgb(164,164,252)"/><path d=" M 109.109 100.701 L 108.664 100.573 L 109.503 97.647 L 109.948 97.775 L 109.109 100.701 Z " fill="rgb(164,164,252)"/><path d=" M 108.911 100.931 L 106.738 100.931 L 106.738 100.468 L 108.911 100.468 L 108.911 100.931 Z " fill="rgb(164,164,252)"/><path d=" M 109.726 97.807 L 106.33 97.807 L 106.33 97.344 L 109.726 97.344 L 109.726 97.807 Z " fill="rgb(164,164,252)"/><path d=" M 103.297 98.302 L 102.844 98.207 L 105.326 86.347 L 105.779 86.442 L 103.297 98.302 Z " fill="rgb(164,164,252)"/><path d=" M 104.526 100.857 L 102.881 98.524 L 103.26 98.257 L 104.905 100.59 L 104.526 100.857 Z " fill="rgb(164,164,252)"/><path d=" M 112.488 99.122 L 109.5 86.355 L 109.951 86.25 L 112.939 99.017 L 112.488 99.122 Z " fill="rgb(164,164,252)"/><path d=" M 111.429 100.854 L 111.093 100.536 L 112.628 98.914 L 112.964 99.232 L 111.429 100.854 Z " fill="rgb(164,164,252)"/><path d=" M 111.355 100.931 L 104.629 100.926 L 104.629 100.463 L 111.355 100.468 L 111.355 100.931 Z " fill="rgb(164,164,252)"/><path d=" M 102.986 98.616 L 102.883 98.165 L 106.228 97.399 L 106.331 97.851 L 102.986 98.616 Z " fill="rgb(164,164,252)"/><path d=" M 112.601 99.365 L 109.647 97.801 L 109.864 97.391 L 112.818 98.955 L 112.601 99.365 Z " fill="rgb(164,164,252)"/><path d=" M 99.497 107.531 L 89.309 95.005 L 89.669 94.713 L 99.856 107.239 L 99.497 107.531 Z " fill="rgb(164,164,252)"/><path d=" M 115.772 107.567 L 115.381 107.319 L 122.853 95.532 L 123.244 95.779 L 115.772 107.567 Z " fill="rgb(164,164,252)"/><path d=" M 99.893 107.352 L 99.46 107.186 L 102.854 98.308 L 103.287 98.473 L 99.893 107.352 Z " fill="rgb(164,164,252)"/><path d=" M 115.345 107.561 L 112.629 99.14 L 113.07 98.998 L 115.786 107.419 L 115.345 107.561 Z " fill="rgb(164,164,252)"/><path d=" M 105.734 104.579 L 105.297 104.425 L 106.64 100.589 L 107.078 100.742 L 105.734 104.579 Z " fill="rgb(164,164,252)"/><path d=" M 109.882 104.647 L 108.637 100.795 L 109.078 100.653 L 110.323 104.504 L 109.882 104.647 Z " fill="rgb(164,164,252)"/><path d=" M 99.635 107.43 L 99.444 107.007 L 105.431 104.307 L 105.622 104.729 L 99.635 107.43 Z " fill="rgb(164,164,252)"/><path d=" M 107.585 105.293 L 105.323 104.727 L 105.436 104.277 L 107.697 104.843 L 107.585 105.293 Z " fill="rgb(164,164,252)"/><path d=" M 107.636 105.294 L 107.53 104.843 L 109.944 104.276 L 110.05 104.728 L 107.636 105.294 Z " fill="rgb(164,164,252)"/><path d=" M 115.596 107.561 L 109.911 104.666 L 110.121 104.253 L 115.807 107.148 L 115.596 107.561 Z " fill="rgb(164,164,252)"/><path d=" M 104.271 112.006 L 99.49 107.555 L 99.805 107.215 L 104.587 111.666 L 104.271 112.006 Z " fill="rgb(164,164,252)"/><path d=" M 109.858 112.068 L 104.307 111.99 L 104.314 111.526 L 109.864 111.604 L 109.858 112.068 Z " fill="rgb(164,164,252)"/><path d=" M 110.041 112.029 L 109.759 111.661 L 115.425 107.306 L 115.707 107.674 L 110.041 112.029 Z " fill="rgb(164,164,252)"/><path d=" M 115.546 107.675 L 99.53 107.588 L 99.533 107.124 L 115.549 107.211 L 115.546 107.675 Z " fill="rgb(164,164,252)"/><path d=" M 99.505 107.611 L 87.484 101.585 L 87.691 101.171 L 99.713 107.197 L 99.505 107.611 Z " fill="rgb(164,164,252)"/><path d=" M 115.661 107.703 L 115.434 107.299 L 127.453 100.522 L 127.68 100.926 L 115.661 107.703 Z " fill="rgb(164,164,252)"/><path d=" M 101.557 118.39 L 101.136 118.198 L 104.082 111.74 L 104.504 111.932 L 101.557 118.39 Z " fill="rgb(164,164,252)"/><path d=" M 113.462 118.793 L 109.659 111.949 L 110.064 111.724 L 113.867 118.568 L 113.462 118.793 Z " fill="rgb(164,164,252)"/><path d=" M 125.751 109.306 L 120.182 105.232 L 120.456 104.859 L 126.024 108.933 L 125.751 109.306 Z " fill="rgb(164,164,252)"/><path d=" M 113.951 118.742 L 113.533 118.542 L 120.11 104.809 L 120.528 105.009 L 113.951 118.742 Z " fill="rgb(164,164,252)"/><path d=" M 88.776 106.747 L 88.572 106.331 L 93.174 104.069 L 93.378 104.484 L 88.776 106.747 Z " fill="rgb(164,164,252)"/><path d=" M 101.107 118.409 L 93.113 104.391 L 93.516 104.162 L 101.509 118.179 L 101.107 118.409 Z " fill="rgb(164,164,252)"/><path d=" M 102.845 98.481 L 95.818 88.336 L 96.199 88.072 L 103.227 98.217 L 102.845 98.481 Z " fill="rgb(164,164,252)"/><path d=" M 112.995 99.245 L 112.588 99.024 L 118.161 88.776 L 118.568 88.998 L 112.995 99.245 Z " fill="rgb(164,164,252)"/><path d=" M 87.883 74.453 L 87.683 74.035 L 102.45 66.953 L 102.65 67.37 L 87.883 74.453 Z " fill="rgb(164,164,252)"/><path d=" M 113.754 67.384 L 102.527 67.384 L 102.527 66.921 L 113.754 66.921 L 113.754 67.384 Z " fill="rgb(164,164,252)"/><path d=" M 128.816 73.942 L 113.577 67.374 L 113.76 66.949 L 128.999 73.517 L 128.816 73.942 Z " fill="rgb(164,164,252)"/></g></g></g></svg>